<svg width="602" height="595" viewBox="0 0 602 595" fill="none" xmlns="http://www.w3.org/2000/svg">
<path id="Vector" d="M95.19 79.5599C83.13 112.56 71.81 145.34 67.05 180.44C63.31 207.95 63.28 237.38 73.25 263.67C84.25 292.58 117.25 327.43 151.25 313.56C178.43 302.48 193.34 268.77 199.15 241.99C200.964 234.166 201.814 226.15 201.68 218.12C200.34 174.74 184.68 128.4 164.62 90.3C158.56 78.79 153.14 68.6299 154.53 55.0599C157.7 24.0099 191.3 15.6399 217.66 16.0599C246.9 16.5099 251.51 42.58 256.3 65.84C265.52 110.64 319.63 131.61 361.07 125.46C396.49 120.21 393.27 72.46 377.36 50.61C364.81 33.34 344.84 21.23 326.36 11.28C321.22 8.51997 310.26 0.279995 304.5 0.489995C323.71 -0.110005 343.5 3.33996 362.17 7.63996C431.714 23.3122 493.195 63.7191 535.17 121.34C543.522 132.741 551.14 144.662 557.98 157.03C565.14 169.94 575.98 183.89 577.49 199.03C545.31 163.66 504.15 139.46 455.24 137.46C404.76 135.39 355.86 154.67 322.61 192.77C302.928 215.551 290.362 243.607 286.47 273.46C286.47 273.46 288.47 354.46 235.47 398.46C193.67 433.16 133.4 442.87 82.63 422.73C69.3 417.45 56.81 405.3 46.99 395.03C19.44 366.22 2.23998 327.72 0.209976 287.82C-1.99002 244.82 13.85 202 34.35 164.89C41.61 151.77 49.62 139.08 58.15 126.75C68.39 111.95 80.16 89.6499 95.19 79.5599Z" fill="white"/>
<path id="Vector_2" d="M11.47 386.46C17.91 393.84 20.68 411.99 24.94 421.04C37.9071 448.628 54.7952 474.196 75.08 496.95C97.3858 521.974 123.853 542.95 153.31 558.95C170.606 568.28 188.785 575.871 207.58 581.61C225.64 587.15 244.3 593.82 263.4 594.14C286.55 594.52 288.13 571.14 282.52 554C279.68 545.33 275.21 537 268.75 530.55C261.67 523.42 248.84 518.24 245.63 507.96C238.63 485.53 293.18 461.71 306.24 451.75C329.04 434.36 345.66 409.23 357.47 383.44C373.02 349.44 414.95 345.56 439.82 371.91C470.07 403.98 480.54 453.64 466.67 495.28C462.924 506.282 458.202 516.928 452.56 527.09C446.31 538.53 441.69 552.77 431.42 561.37C479.91 547.27 522.99 497.81 549.66 457.14C581.88 407.99 607.49 346.86 599.74 286.49C593.18 235.4 559.05 188.26 511.63 167.6C468.32 148.73 416.63 156.53 377.47 181.52C328.47 212.75 316.87 260.75 308.83 314.92C297.02 394.53 228.76 458.36 146.22 458.27C92.08 458.24 45.87 425.89 11.47 386.46Z" fill="white"/>
<path id="Vector_3" d="M95.19 79.5599C83.13 112.56 71.81 145.34 67.05 180.44C63.31 207.95 63.28 237.38 73.25 263.67C84.25 292.58 117.25 327.43 151.25 313.56C178.43 302.48 193.34 268.77 199.15 241.99C200.964 234.166 201.814 226.15 201.68 218.12C200.34 174.74 184.68 128.4 164.62 90.3C158.56 78.79 153.14 68.6299 154.53 55.0599C157.7 24.0099 191.3 15.6399 217.66 16.0599C246.9 16.5099 251.51 42.58 256.3 65.84C265.52 110.64 319.63 131.61 361.07 125.46C396.49 120.21 393.27 72.46 377.36 50.61C364.81 33.34 344.84 21.23 326.36 11.28C321.22 8.51997 310.26 0.279995 304.5 0.489995C323.71 -0.110005 343.5 3.33996 362.17 7.63996C431.714 23.3122 493.195 63.7191 535.17 121.34C543.522 132.741 551.14 144.662 557.98 157.03C565.14 169.94 575.98 183.89 577.49 199.03C545.31 163.66 504.15 139.46 455.24 137.46C404.76 135.39 355.86 154.67 322.61 192.77C302.928 215.551 290.362 243.607 286.47 273.46C286.47 273.46 288.47 354.46 235.47 398.46C193.67 433.16 133.4 442.87 82.63 422.73C69.3 417.45 56.81 405.3 46.99 395.03C19.44 366.22 2.23998 327.72 0.209976 287.82C-1.99002 244.82 13.85 202 34.35 164.89C41.61 151.77 49.62 139.08 58.15 126.75C68.39 111.95 80.16 89.6499 95.19 79.5599Z" fill="url(#paint0_linear_0_1)"/>
<path id="Vector_4" d="M11.47 386.46C17.91 393.84 20.68 411.99 24.94 421.04C37.9071 448.628 54.7952 474.196 75.08 496.95C97.3858 521.974 123.853 542.95 153.31 558.95C170.606 568.28 188.785 575.871 207.58 581.61C225.64 587.15 244.3 593.82 263.4 594.14C286.55 594.52 288.13 571.14 282.52 554C279.68 545.33 275.21 537 268.75 530.55C261.67 523.42 248.84 518.24 245.63 507.96C238.63 485.53 293.18 461.71 306.24 451.75C329.04 434.36 345.66 409.23 357.47 383.44C373.02 349.44 414.95 345.56 439.82 371.91C470.07 403.98 480.54 453.64 466.67 495.28C462.924 506.282 458.202 516.928 452.56 527.09C446.31 538.53 441.69 552.77 431.42 561.37C479.91 547.27 522.99 497.81 549.66 457.14C581.88 407.99 607.49 346.86 599.74 286.49C593.18 235.4 559.05 188.26 511.63 167.6C468.32 148.73 416.63 156.53 377.47 181.52C328.47 212.75 316.87 260.75 308.83 314.92C297.02 394.53 228.76 458.36 146.22 458.27C92.08 458.24 45.87 425.89 11.47 386.46Z" fill="url(#paint1_linear_0_1)" stroke="black" stroke-width="0.25" stroke-miterlimit="10"/>
<defs>
<linearGradient id="paint0_linear_0_1" x1="-2.40878e-05" y1="216.75" x2="577.47" y2="216.75" gradientUnits="userSpaceOnUse">
<stop stop-color="#0071BC"/>
<stop offset="1" stop-color="#29ABE2"/>
</linearGradient>
<linearGradient id="paint1_linear_0_1" x1="11.47" y1="375.66" x2="601.13" y2="375.66" gradientUnits="userSpaceOnUse">
<stop stop-color="#020000"/>
<stop offset="1"/>
</linearGradient>
</defs>
</svg>
